<?xml version="1.0" standalone="no"?>
<svg
  width="100%"
  height="100%"
  viewBox="0 0 500 500"
  xmlns="http://www.w3.org/2000/svg"
>
  <g transform="translate(300,300)">
    <path d="M70.3,-103.7C115.3,-80.4,192.7,-101.9,196.8,-90.6C200.9,-79.3,131.6,-35.1,117.1,11.8C102.5,58.8,142.7,108.6,140.5,135C138.3,161.3,93.6,164.1,59,151.9C24.3,139.8,-0.4,112.6,-37.4,109.7C-74.4,106.9,-123.7,128.4,-140,117.1C-156.3,105.9,-139.5,61.8,-156,16.1C-172.5,-29.6,-222.2,-76.9,-218.8,-106.4C-215.4,-135.8,-158.8,-147.4,-113.5,-170.5C-68.1,-193.7,-34.1,-228.3,-10.7,-211.6C12.6,-195,25.2,-126.9,70.3,-103.7Z" fill="#054c79" style="opacity: .5"/>
  </g>
</svg>
    