<?xml version="1.0" standalone="no"?><svg xmlns="http://www.w3.org/2000/svg" viewBox="0 0 1440 320"><path fill="#F2C335" fill-opacity="1" d="M0,192L16,202.7C32,213,64,235,96,202.7C128,171,160,85,192,48C224,11,256,21,288,42.7C320,64,352,96,384,133.3C416,171,448,213,480,208C512,203,544,149,576,133.3C608,117,640,139,672,154.7C704,171,736,181,768,176C800,171,832,149,864,128C896,107,928,85,960,90.7C992,96,1024,128,1056,170.7C1088,213,1120,267,1152,282.7C1184,299,1216,277,1248,240C1280,203,1312,149,1344,122.7C1376,96,1408,96,1424,96L1440,96L1440,0L1424,0C1408,0,1376,0,1344,0C1312,0,1280,0,1248,0C1216,0,1184,0,1152,0C1120,0,1088,0,1056,0C1024,0,992,0,960,0C928,0,896,0,864,0C832,0,800,0,768,0C736,0,704,0,672,0C640,0,608,0,576,0C544,0,512,0,480,0C448,0,416,0,384,0C352,0,320,0,288,0C256,0,224,0,192,0C160,0,128,0,96,0C64,0,32,0,16,0L0,0Z"></path></svg>